<?xml version="1.0" encoding="UTF-8"?>
<!DOCTYPE svg PUBLIC "-//W3C//DTD SVG 1.1//EN" "http://www.w3.org/Graphics/SVG/1.1/DTD/svg11.dtd">
<!-- Creator: CorelDRAW X8 -->
<svg xmlns="http://www.w3.org/2000/svg" xml:space="preserve" width="190mm" height="65mm" version="1.1" style="shape-rendering:geometricPrecision; text-rendering:geometricPrecision; image-rendering:optimizeQuality; fill-rule:evenodd; clip-rule:evenodd"
viewBox="0 0 19000 6500"
 xmlns:xlink="http://www.w3.org/1999/xlink">
 <defs>
  <style type="text/css">
   <![CDATA[
    .fil0 {fill:#0083F7}
    .fil1 {fill:#0083F7;fill-rule:nonzero}
   ]]>
  </style>
 </defs>
 <g id="Camada_x0020_1">
  <metadata id="CorelCorpID_0Corel-Layer"/>
  <path class="fil0" d="M3519 3684c272,-328 942,-754 1355,-960 396,-197 1487,-600 1761,-90 170,318 -140,677 -283,802 -497,434 -1215,461 -1858,422 -100,-6 -877,-100 -975,-174zm-3530 446c68,1 215,-76 292,-106 323,-128 716,-202 1075,-202 260,-1 1361,97 1515,187 -10,71 -286,488 -348,593 -110,183 -238,423 -328,610 -139,287 -487,1042 -565,1321l309 -678c261,-522 428,-774 755,-1236 142,-201 300,-374 437,-555 161,-18 674,93 862,121 908,135 2569,88 3008,-807 216,-441 132,-1080 -480,-1300 -286,-103 -567,-81 -878,-37 -811,114 -1938,858 -2416,1524 -93,129 -125,79 -378,57 -497,-42 -891,-43 -1391,31 -273,40 -535,98 -795,181 -130,41 -247,84 -361,136 -69,32 -285,153 -313,160z"/>
  <path class="fil0" d="M5715 871c33,46 47,50 111,85 234,126 66,188 209,405 39,-280 -30,-425 129,-658 101,-148 320,-258 568,-232 387,42 730,433 894,693 470,746 512,1722 31,2486 -721,1146 -2170,1742 -3492,2076 -136,35 -589,113 -653,162 1743,100 3907,-609 4619,-2280 424,-997 285,-1926 -279,-2689 -386,-520 -1156,-1014 -1689,-484 -98,97 -97,130 -167,273 -51,103 -185,88 -281,163z"/>
  <path class="fil0" d="M6481 808c-202,91 -77,397 143,315 183,-70 104,-427 -143,-315z"/>
  <polygon class="fil1" points="9166,2151 9166,771 9351,771 9351,2151 "/>
  <path id="1" class="fil1" d="M9894 1646l0 -168 281 0 0 673 -362 0c-142,0 -213,-77 -213,-232l0 -911c0,-158 71,-237 213,-237l127 0c157,0 235,80 235,240l0 150 -185 0 0 -123c0,-66 -26,-100 -78,-100l-47 0c-53,0 -80,34 -80,100l0 846c0,67 27,100 80,100l125 0 0 -338 -96 0z"/>
  <path id="2" class="fil1" d="M10411 771l361 0c141,0 212,79 212,237l0 340c0,120 -37,196 -110,229l129 574 -175 0 -121 -557 -112 0 0 557 -184 0 0 -1380zm184 665l122 0c55,0 82,-33 82,-100l0 -298c0,-66 -27,-100 -82,-100l-122 0 0 498z"/>
  <polygon id="3" class="fil1" points="11224,2151 11224,771 11681,771 11681,938 11408,938 11408,1357 11650,1357 11650,1525 11408,1525 11408,1984 11681,1984 11681,2151 "/>
  <path id="4" class="fil1" d="M11833 1984l121 0c55,0 82,-33 82,-100l0 -1113 185 0 0 1148c0,155 -71,232 -214,232l-174 0 0 -167z"/>
  <path id="5" class="fil1" d="M12655 2151l-185 0 0 -1143c0,-158 74,-237 221,-237l139 0c147,0 221,79 221,237l0 1143 -185 0 0 -505 -211 0 0 505zm211 -673l0 -459c0,-54 -27,-81 -80,-81l-50 0c-54,0 -81,27 -81,81l0 459 211 0z"/>
  <path id="6" class="fil1" d="M13950 1442c102,28 152,81 152,158l0 346c0,137 -70,205 -209,205l-371 0 0 -1380 315 0c164,0 246,83 246,250l0 265c0,80 -44,128 -133,146l0 10zm-244 542l139 0c48,0 73,-20 73,-60l0 -305c0,-66 -37,-98 -110,-98l-102 0 0 463zm0 -630l87 0c70,0 105,-34 105,-100l0 -216c0,-66 -27,-100 -82,-100l-110 0 0 416z"/>
  <path id="7" class="fil1" d="M14517 2151l-184 0 0 -1143c0,-158 73,-237 221,-237l138 0c147,0 221,79 221,237l0 1143 -185 0 0 -505 -211 0 0 505zm211 -673l0 -459c0,-54 -26,-81 -80,-81l-50 0c-54,0 -81,27 -81,81l0 459 211 0z"/>
  <polygon id="8" class="fil1" points="15457,938 15457,2151 15272,2151 15272,938 15095,938 15095,771 15633,771 15633,938 "/>
  <polygon id="9" class="fil1" points="15825,2151 15825,771 16010,771 16010,2151 "/>
  <path id="10" class="fil1" d="M16623 1142l0 -121c0,-55 -27,-83 -81,-83l-29 0c-53,0 -79,28 -79,83l0 229c0,25 5,43 16,52 10,9 26,20 50,34l174 94c39,22 66,39 82,51 16,13 29,27 38,45 9,17 13,50 13,99l0 294c0,155 -74,232 -223,232l-113 0c-148,0 -221,-84 -221,-253l0 -70 184 0 0 75c0,54 28,81 83,81l33 0c48,0 73,-27 73,-81l0 -234c0,-26 -6,-43 -16,-52 -10,-9 -27,-21 -50,-35l-175 -98c-38,-20 -66,-38 -83,-52 -18,-14 -30,-32 -38,-54 -7,-23 -11,-52 -11,-88l0 -282c0,-158 73,-237 221,-237l115 0c147,0 221,79 221,237l0 134 -184 0z"/>
  <polygon id="11" class="fil1" points="17341,938 17341,2151 17157,2151 17157,938 16980,938 16980,771 17518,771 17518,938 "/>
  <path id="12" class="fil1" d="M17885 2151l-185 0 0 -1143c0,-158 74,-237 221,-237l139 0c147,0 221,79 221,237l0 1143 -185 0 0 -505 -211 0 0 505zm211 -673l0 -459c0,-54 -27,-81 -81,-81l-50 0c-53,0 -80,27 -80,81l0 459 211 0z"/>
  <path class="fil1" d="M9809 4271c195,55 292,156 292,303l0 666c0,263 -134,395 -403,395l-713 0 0 -2653 606 0c316,0 473,160 473,480l0 510c0,153 -85,246 -255,281l0 18zm-469 1042l266 0c94,0 140,-38 140,-114l0 -588c0,-125 -70,-188 -210,-188l-196 0 0 890zm0 -1212l166 0c136,0 204,-64 204,-192l0 -414c0,-128 -53,-192 -159,-192l-211 0 0 798z"/>
  <polygon id="1" class="fil1" points="10562,5635 10562,2982 11442,2982 11442,3303 10917,3303 10917,4109 11383,4109 11383,4430 10917,4430 10917,5313 11442,5313 11442,5635 "/>
  <polygon id="2" class="fil1" points="12428,3303 12428,5635 12073,5635 12073,3303 11733,3303 11733,2982 12768,2982 12768,3303 "/>
  <path id="3" class="fil1" d="M13473 5635l-355 0 0 -2199c0,-303 141,-454 425,-454l266 0c283,0 425,151 425,454l0 2199 -355 0 0 -972 -406 0 0 972zm406 -1293l0 -883c0,-104 -52,-156 -155,-156l-96 0c-104,0 -155,52 -155,156l0 883 406 0zm-222 -1748l-155 214 -273 0 317 -414 222 0 318 414 -273 0 -156 -214z"/>
  <polygon id="4" class="fil1" points="15449,4264 15449,2982 15803,2982 15803,5635 15449,5635 15449,5106 15068,3898 15068,5635 14713,5635 14713,2982 15068,2982 "/>
  <polygon id="5" class="fil1" points="16301,5635 16301,2982 16656,2982 16656,5635 "/>
  <path id="6" class="fil1" d="M17491 5635l-355 0 0 -2199c0,-303 141,-454 425,-454l266 0c283,0 425,151 425,454l0 2199 -355 0 0 -972 -406 0 0 972zm406 -1293l0 -883c0,-104 -52,-156 -155,-156l-96 0c-104,0 -155,52 -155,156l0 883 406 0z"/>
 </g>
</svg>
